<svg data-v-423bf9ae="" xmlns="http://www.w3.org/2000/svg" viewBox="0 0 703 90" class="iconLeft"><!----><!----><!----><g data-v-423bf9ae="" id="8e834ef5-648b-4d82-812b-97e02d2f2da6" fill="black" transform="matrix(4.464285853667328,0,0,4.464285853667328,97.98443301726553,7.499997798885602)"><path d="M5.19 3.14L5.19 3.14Q3.86 3.14 3.21 4.00L3.21 4.00Q2.79 4.55 2.55 5.44Q2.31 6.33 2.31 7.39L2.31 7.39Q2.31 8.40 2.52 9.26Q2.73 10.12 3.11 10.71L3.11 10.71Q3.49 11.30 4.03 11.57Q4.56 11.84 5.38 11.84L5.38 11.84Q6.62 11.84 7.36 11.25Q8.11 10.65 8.30 9.48L8.30 9.48L9.07 9.48Q8.75 11.13 7.81 11.93Q6.87 12.74 5.24 12.74L5.24 12.74Q3.30 12.74 2.16 11.62L2.16 11.62Q1.47 10.95 1.11 9.93Q0.74 8.92 0.74 7.66L0.74 7.66Q0.74 6.24 1.20 5.10Q1.67 3.96 2.51 3.26L2.51 3.26Q3.57 2.38 5.32 2.38L5.32 2.38Q5.75 2.38 6.10 2.43Q6.44 2.48 6.73 2.60Q7.03 2.72 7.29 2.91Q7.55 3.11 7.81 3.40L7.81 3.40L8.09 2.52L8.86 2.52L8.86 5.61L8.01 5.61Q7.60 3.14 5.19 3.14ZM15.85 11.76L15.85 8.64Q15.85 7.74 15.80 7.29Q15.75 6.83 15.62 6.58L15.62 6.58Q15.27 5.89 14.39 5.89L14.39 5.89Q14 5.89 13.64 6.03Q13.27 6.17 12.99 6.41L12.99 6.41Q12.68 6.69 12.54 7.06Q12.39 7.42 12.36 7.97L12.36 7.97L12.36 11.76L13.30 12.03L13.30 12.60L9.93 12.60L9.93 12.03L11.00 11.76L11.00 2.52L9.93 2.25L9.93 1.68L12.36 1.68L12.36 6.36Q12.78 5.68 13.48 5.29Q14.17 4.90 14.97 4.90L14.97 4.90Q15.53 4.90 15.97 5.10Q16.42 5.29 16.69 5.66L16.69 5.66Q16.97 6.05 17.09 6.75Q17.21 7.46 17.21 8.67L17.21 8.67L17.21 11.76L18.28 12.03L18.28 12.60L14.91 12.60L14.91 12.03L15.85 11.76ZM19.12 10.96L19.12 10.96Q19.12 10.42 19.37 10.00Q19.61 9.58 20.15 9.25Q20.68 8.92 21.52 8.68Q22.36 8.44 23.53 8.26L23.53 8.26Q23.46 7.43 23.37 6.97Q23.28 6.51 23.13 6.23L23.13 6.23Q22.93 5.87 22.58 5.69Q22.23 5.52 21.83 5.52L21.83 5.52Q21.43 5.52 21.12 5.66Q20.80 5.80 20.69 6.03L20.69 6.03Q20.89 6.19 20.98 6.40Q21.07 6.62 21.07 6.82L21.07 6.82Q21.07 7.17 20.84 7.37Q20.61 7.57 20.27 7.57L20.27 7.57Q19.94 7.57 19.72 7.35Q19.50 7.13 19.50 6.72L19.50 6.72Q19.50 6.29 19.74 5.94Q19.98 5.60 20.36 5.37Q20.75 5.14 21.23 5.02Q21.71 4.90 22.19 4.90L22.19 4.90Q23.38 4.90 24.07 5.59L24.07 5.59Q24.93 6.45 24.93 8.67L24.93 8.67L24.93 10.70Q24.93 11.40 25.02 11.65Q25.12 11.91 25.42 11.91L25.42 11.91L26.05 11.91L26.05 12.33Q25.05 12.74 24.49 12.74L24.49 12.74Q24.28 12.74 24.14 12.67Q24.00 12.60 23.91 12.42Q23.83 12.25 23.79 11.96Q23.76 11.66 23.76 11.21L23.76 11.21L23.70 11.21Q23.27 11.93 22.55 12.33Q21.84 12.74 21.01 12.74L21.01 12.74Q20.13 12.74 19.63 12.27Q19.12 11.80 19.12 10.96ZM21.60 11.93L21.60 11.93Q21.99 11.93 22.42 11.72Q22.85 11.52 23.14 11.16L23.14 11.16Q23.58 10.63 23.58 9.59L23.58 9.59Q23.58 9.35 23.56 9.12Q23.55 8.89 23.52 8.68L23.52 8.68Q22.67 8.85 22.10 9.03Q21.53 9.21 21.19 9.44Q20.85 9.67 20.71 9.97Q20.57 10.28 20.57 10.67L20.57 10.67Q20.57 11.27 20.84 11.60Q21.11 11.93 21.60 11.93ZM27.69 11.76L27.69 5.88L26.61 5.61L26.61 5.04L28.63 5.04L28.94 6.44L28.99 6.44Q29.40 5.73 30.08 5.31Q30.76 4.90 31.53 4.90L31.53 4.90Q32.12 4.90 32.56 5.12Q33.00 5.33 33.21 5.66L33.21 5.66Q33.43 6.01 33.57 6.58L33.57 6.58Q34.02 5.78 34.73 5.34Q35.45 4.90 36.26 4.90L36.26 4.90Q36.82 4.90 37.27 5.12Q37.72 5.33 37.95 5.71L37.95 5.71Q38.08 5.91 38.16 6.19Q38.25 6.47 38.30 6.88Q38.36 7.29 38.38 7.85Q38.40 8.41 38.40 9.17L38.40 9.17L38.40 11.76L39.48 12.03L39.48 12.60L36.11 12.60L36.11 12.03L37.04 11.76L37.04 8.64Q37.04 7.74 36.99 7.29Q36.95 6.83 36.82 6.58L36.82 6.58Q36.47 5.89 35.64 5.89L35.64 5.89Q35.28 5.89 34.95 6.03Q34.62 6.17 34.36 6.41L34.36 6.41Q34.05 6.69 33.90 7.06Q33.75 7.43 33.73 8.02L33.73 8.02L33.73 11.76L34.66 12.03L34.66 12.60L31.43 12.60L31.43 12.03L32.37 11.76L32.37 8.64Q32.37 7.74 32.32 7.29Q32.27 6.83 32.14 6.58L32.14 6.58Q31.79 5.89 30.97 5.89L30.97 5.89Q30.60 5.89 30.27 6.03Q29.95 6.17 29.68 6.41L29.68 6.41Q29.37 6.69 29.23 7.06Q29.08 7.43 29.05 8.02L29.05 8.02L29.05 11.76L29.99 12.03L29.99 12.60L26.61 12.60L26.61 12.03L27.69 11.76ZM42.55 14.28L43.90 14.55L43.90 15.12L40.11 15.12L40.11 14.55L41.19 14.28L41.19 5.88L40.11 5.61L40.11 5.04L42.13 5.04L42.34 6.12Q42.78 5.42 43.35 5.16Q43.92 4.90 44.63 4.90L44.63 4.90Q45.35 4.90 45.93 5.11Q46.51 5.32 46.87 5.78L46.87 5.78Q47.29 6.31 47.54 7.06Q47.78 7.80 47.78 8.68L47.78 8.68Q47.78 9.58 47.51 10.37Q47.24 11.16 46.77 11.69L46.77 11.69Q45.99 12.60 44.52 12.60L44.52 12.60Q43.92 12.60 43.43 12.38Q42.95 12.15 42.55 11.56L42.55 11.56L42.55 14.28ZM42.53 8.69L42.53 8.69Q42.53 10.36 43.02 11.13L43.02 11.13Q43.25 11.49 43.57 11.68Q43.89 11.87 44.42 11.87L44.42 11.87Q45.37 11.87 45.84 11.21L45.84 11.21Q46.09 10.86 46.20 10.24Q46.31 9.62 46.31 8.79L46.31 8.79Q46.31 7.15 45.82 6.37L45.82 6.37Q45.58 6.01 45.26 5.82Q44.94 5.63 44.41 5.63L44.41 5.63Q43.92 5.63 43.57 5.79Q43.22 5.95 43.02 6.27L43.02 6.27Q42.78 6.65 42.66 7.25Q42.53 7.85 42.53 8.69ZM50.01 5.88L48.93 5.61L48.93 5.04L51.37 5.04L51.37 11.76L52.44 12.03L52.44 12.60L48.93 12.60L48.93 12.03L50.01 11.76L50.01 5.88ZM49.81 2.79L49.81 2.79Q49.81 2.38 50.04 2.14Q50.27 1.90 50.68 1.90L50.68 1.90Q51.09 1.90 51.32 2.14Q51.56 2.38 51.56 2.79L51.56 2.79Q51.56 3.19 51.32 3.42Q51.09 3.65 50.68 3.65L50.68 3.65Q50.27 3.65 50.04 3.42Q49.81 3.19 49.81 2.79ZM60.30 8.75L60.30 8.75Q60.30 9.67 60.03 10.49Q59.75 11.30 59.26 11.83L59.26 11.83Q58.44 12.74 56.83 12.74L56.83 12.74Q55.26 12.74 54.43 11.86L54.43 11.86Q53.96 11.34 53.70 10.58Q53.44 9.81 53.44 8.92L53.44 8.92Q53.44 7.99 53.70 7.17Q53.97 6.34 54.47 5.81L54.47 5.81Q54.92 5.33 55.51 5.12Q56.10 4.90 56.88 4.90L56.88 4.90Q57.65 4.90 58.27 5.12Q58.88 5.33 59.30 5.78L59.30 5.78Q59.79 6.30 60.05 7.08Q60.30 7.85 60.30 8.75ZM54.94 8.76L54.94 8.76Q54.94 10.44 55.44 11.27L55.44 11.27Q55.68 11.63 56.01 11.82Q56.34 12.01 56.87 12.01L56.87 12.01Q57.83 12.01 58.31 11.35L58.31 11.35Q58.56 10.99 58.68 10.35Q58.80 9.70 58.80 8.86L58.80 8.86Q58.80 7.20 58.30 6.37L58.30 6.37Q58.06 6.01 57.72 5.82Q57.39 5.63 56.85 5.63L56.85 5.63Q55.87 5.63 55.44 6.27L55.44 6.27Q54.94 7.06 54.94 8.76ZM62.52 11.76L62.52 5.88L61.45 5.61L61.45 5.04L63.46 5.04L63.77 6.44L63.83 6.44Q64.25 5.73 64.95 5.31Q65.66 4.90 66.49 4.90L66.49 4.90Q67.05 4.90 67.49 5.10Q67.94 5.29 68.21 5.66L68.21 5.66Q68.49 6.05 68.61 6.75Q68.73 7.46 68.73 8.67L68.73 8.67L68.73 11.76L69.80 12.03L69.80 12.60L66.43 12.60L66.43 12.03L67.37 11.76L67.37 8.64Q67.37 7.74 67.32 7.29Q67.27 6.83 67.14 6.58L67.14 6.58Q66.79 5.89 65.91 5.89L65.91 5.89Q65.52 5.89 65.16 6.03Q64.79 6.17 64.51 6.41L64.51 6.41Q64.20 6.69 64.06 7.06Q63.91 7.43 63.88 8.02L63.88 8.02L63.88 11.76L64.82 12.03L64.82 12.60L61.45 12.60L61.45 12.03L62.52 11.76ZM76.99 3.42L76.99 7.48L80.91 3.42L79.63 3.12L79.63 2.52L83.31 2.52L83.31 3.12L82.08 3.42L78.81 6.66L82.99 11.73L84.17 12.00L84.17 12.60L80.26 12.60L80.26 12.00L81.19 11.72L77.87 7.62L76.99 8.46L76.99 11.70L78.16 12.00L78.16 12.60L74.27 12.60L74.27 12.00L75.59 11.70L75.59 3.42L74.27 3.12L74.27 2.52L78.16 2.52L78.16 3.12L76.99 3.42ZM85.62 5.88L84.55 5.61L84.55 5.04L86.98 5.04L86.98 11.76L88.06 12.03L88.06 12.60L84.55 12.60L84.55 12.03L85.62 11.76L85.62 5.88ZM85.43 2.79L85.43 2.79Q85.43 2.38 85.66 2.14Q85.89 1.90 86.30 1.90L86.30 1.90Q86.70 1.90 86.94 2.14Q87.18 2.38 87.18 2.79L87.18 2.79Q87.18 3.19 86.94 3.42Q86.70 3.65 86.30 3.65L86.30 3.65Q85.89 3.65 85.66 3.42Q85.43 3.19 85.43 2.79ZM89.05 8.89L89.05 8.89Q89.05 7.97 89.29 7.15Q89.53 6.34 90.01 5.81L90.01 5.81Q90.41 5.36 90.97 5.13Q91.52 4.90 92.26 4.90L92.26 4.90Q92.89 4.90 93.39 5.14Q93.90 5.38 94.30 5.99L94.30 5.99L94.30 2.52L93.23 2.25L93.23 1.68L95.66 1.68L95.66 11.76L96.74 12.03L96.74 12.60L94.57 12.74L94.46 11.59Q94.02 12.25 93.48 12.49Q92.93 12.74 92.26 12.74L92.26 12.74Q91.55 12.74 90.97 12.53Q90.40 12.32 90.02 11.86L90.02 11.86Q89.57 11.31 89.31 10.55Q89.05 9.79 89.05 8.89ZM94.30 8.88L94.30 8.88Q94.30 7.15 93.81 6.37L93.81 6.37Q93.59 6.01 93.27 5.82Q92.95 5.63 92.41 5.63L92.41 5.63Q91.46 5.63 91 6.29L91 6.29Q90.75 6.65 90.64 7.29Q90.52 7.94 90.52 8.78L90.52 8.78Q90.52 10.46 91.01 11.27L91.01 11.27Q91.25 11.63 91.57 11.82Q91.90 12.01 92.43 12.01L92.43 12.01Q92.92 12.01 93.27 11.85Q93.62 11.69 93.81 11.37L93.81 11.37Q94.05 10.98 94.18 10.35Q94.30 9.73 94.30 8.88ZM100.51 12.10L100.51 12.10Q101.30 12.10 101.79 11.78Q102.28 11.47 102.28 10.88L102.28 10.88Q102.28 10.53 102.10 10.29Q101.92 10.05 101.63 9.88Q101.35 9.72 100.99 9.60Q100.63 9.48 100.30 9.38L100.30 9.38Q99.86 9.25 99.45 9.09Q99.04 8.92 98.71 8.66Q98.38 8.40 98.18 8.03Q97.99 7.66 97.99 7.13L97.99 7.13Q97.99 6.12 98.72 5.51Q99.46 4.90 100.77 4.90L100.77 4.90Q101.89 4.90 102.54 5.37Q103.19 5.84 103.19 6.65L103.19 6.65Q103.19 7.10 103.00 7.35Q102.80 7.60 102.44 7.60L102.44 7.60Q102.12 7.60 101.91 7.41Q101.70 7.21 101.70 6.90L101.70 6.90Q101.70 6.64 101.84 6.42Q101.98 6.20 102.20 6.10L102.20 6.10Q101.99 5.81 101.66 5.68Q101.33 5.54 100.81 5.54L100.81 5.54Q99.13 5.54 99.13 6.73L99.13 6.73Q99.13 7.06 99.25 7.27Q99.36 7.48 99.58 7.63Q99.81 7.78 100.14 7.90Q100.46 8.02 100.90 8.16L100.90 8.16Q101.37 8.32 101.84 8.48Q102.30 8.65 102.67 8.90Q103.04 9.16 103.27 9.53Q103.50 9.91 103.50 10.47L103.50 10.47Q103.50 11.02 103.28 11.44Q103.05 11.86 102.65 12.14Q102.24 12.43 101.68 12.59Q101.12 12.74 100.45 12.74L100.45 12.74Q99.20 12.74 98.45 12.24Q97.71 11.75 97.71 10.88L97.71 10.88Q97.71 10.43 97.91 10.17Q98.11 9.91 98.49 9.91L98.49 9.91Q98.83 9.91 99.06 10.11Q99.29 10.30 99.29 10.63L99.29 10.63Q99.29 10.89 99.14 11.13Q98.99 11.37 98.78 11.48L98.78 11.48Q98.97 11.76 99.44 11.93Q99.90 12.10 100.51 12.10ZM117.08 3.42L117.08 11.70L118.26 12.00L118.26 12.60L114.51 12.60L114.51 12.00L115.68 11.70L115.68 7.83L110.94 7.83L110.94 11.70L112.11 12.00L112.11 12.60L108.36 12.60L108.36 12.00L109.54 11.70L109.54 3.42L108.36 3.12L108.36 2.52L112.11 2.52L112.11 3.12L110.94 3.42L110.94 7.01L115.68 7.01L115.68 3.42L114.51 3.12L114.51 2.52L118.26 2.52L118.26 3.12L117.08 3.42ZM121.37 5.04L121.37 9.00Q121.37 9.45 121.38 9.79Q121.39 10.12 121.42 10.36Q121.44 10.60 121.48 10.77Q121.52 10.93 121.59 11.06L121.59 11.06Q121.91 11.75 122.77 11.75L122.77 11.75Q123.14 11.75 123.49 11.61Q123.84 11.47 124.11 11.23L124.11 11.23Q124.42 10.95 124.56 10.58Q124.71 10.21 124.74 9.62L124.74 9.62L124.74 5.88L123.52 5.61L123.52 5.04L126.10 5.04L126.10 11.76L127.18 12.03L127.18 12.60L125.01 12.74L124.85 11.20L124.80 11.20Q124.39 11.91 123.69 12.33Q122.99 12.74 122.19 12.74L122.19 12.74Q121.66 12.74 121.22 12.54Q120.78 12.35 120.53 11.98L120.53 11.98Q120.25 11.59 120.13 10.88Q120.01 10.18 120.01 8.97L120.01 8.97L120.01 5.88L119.07 5.61L119.07 5.04L121.37 5.04ZM135.30 8.75L135.30 8.75Q135.30 9.67 135.03 10.48Q134.76 11.28 134.29 11.83L134.29 11.83Q133.50 12.74 132.03 12.74L132.03 12.74Q131.32 12.74 130.76 12.41Q130.20 12.08 129.77 11.19L129.77 11.19L129.35 12.60L128.69 12.60L128.69 2.52L127.61 2.25L127.61 1.68L130.05 1.68L130.05 5.85Q130.47 5.32 130.98 5.11Q131.50 4.90 132.15 4.90L132.15 4.90Q132.86 4.90 133.44 5.11Q134.02 5.32 134.39 5.78L134.39 5.78Q134.82 6.31 135.06 7.08Q135.30 7.85 135.30 8.75ZM130.05 8.76L130.05 8.76Q130.05 10.49 130.54 11.27L130.54 11.27Q130.76 11.63 131.08 11.82Q131.40 12.01 131.94 12.01L131.94 12.01Q132.89 12.01 133.35 11.35L133.35 11.35Q133.60 10.99 133.71 10.35Q133.83 9.70 133.83 8.86L133.83 8.86Q133.83 7.18 133.34 6.37L133.34 6.37Q133.10 6.01 132.78 5.82Q132.45 5.63 131.92 5.63L131.92 5.63Q131.43 5.63 131.08 5.79Q130.73 5.95 130.54 6.27L130.54 6.27Q130.30 6.66 130.17 7.29Q130.05 7.91 130.05 8.76Z"></path></g><!----><g data-v-423bf9ae="" id="b1ae7538-dae4-42fe-a87e-f518acea8096" transform="matrix(1.0011123300603315,0,0,1.0011123300603315,-8.654522367854291,-5.005561650301651)" stroke="none" fill="black"><path d="M43 38.2c0 3.9 3.1 7 7 7 3.8 0 7-3.1 7-7s-3.1-7-7-7c-3.8 0-7 3.1-7 7zM32.6 78.4s0-7.3-9.1-13.7c0 0-.1 2.8 1.8 8-.3-.2-1.6-.7-7.9-1.1-.1 0 3.7 7.7 15.2 6.8z"></path><path d="M18.3 56.3s-.9 2.1-1 6.8c-.1-.3-1-1-5.9-3.2 0 0 .7 7.1 9.9 9.9 0-.1 2.2-5.8-3-13.5z"></path><path d="M14.5 59.5s3.8-4 2.2-12.2c0 0-1.5 1.4-3.2 5.3 0-.2-.5-1.2-3.8-4.7 0 0-1.9 6.1 4.8 11.6z"></path><path d="M17.7 38.5s-1.7.8-4.2 3.6c.1-.2-.1-1.2-1.9-5.1 0 0-3.4 4.7.8 11.3 0 .1 4.4-2.3 5.3-9.8z"></path><path d="M14.2 38c4.8-4.3 2.1-8.6 2.1-8.6-5.3 6.4-2.1 8.6-2.1 8.6zM76.5 64.7c-9.1 6.4-9.1 13.7-9.1 13.7 11.5.8 15.3-6.8 15.3-6.8-6.3.4-7.7.9-7.9 1.1 1.8-5.2 1.7-8 1.7-8z"></path><path d="M82.7 63c-.1-4.7-1-6.8-1-6.8-5.2 7.7-3.1 13.4-3.1 13.4 9.2-2.7 9.9-9.9 9.9-9.9-4.8 2.3-5.7 3.1-5.8 3.3z"></path><path d="M83.4 47.3c-1.6 8.3 2.2 12.2 2.2 12.2 6.7-5.5 4.8-11.7 4.8-11.7-3.3 3.5-3.7 4.5-3.8 4.7-1.7-3.7-3.2-5.2-3.2-5.2z"></path><path d="M87.6 48.4c4.2-6.6.8-11.3.8-11.3-1.8 3.9-1.9 4.9-1.9 5.1-2.5-2.8-4.2-3.6-4.2-3.6.9 7.4 5.3 9.8 5.3 9.8z"></path><path d="M85.8 38s3.2-2.2-2.1-8.6c0 0-2.7 4.3 2.1 8.6zM28.3 27.8l1-3.7 3.7-1-3.7-.9-1-3.7-1 3.7-3.6.9 3.6 1zM74.4 25l1-3.7 3.7-1-3.7-1-1-3.6-.9 3.6-3.7 1 3.7 1zM43 18.5l1.5-5.3 5.3-1.5-5.3-1.4L43 5l-1.4 5.3-5.3 1.4 5.3 1.5zM74.5 33.7c-.7-.5-1.5-.8-2.3-.8-1 0-2 .4-2.8 1.2L57.1 46.6c-.6.6-1.3.9-2.1.9h-.7L52 54.8c-.6-.5-1.3-.8-2.1-.8l1.9-6.5h-4.1l1.9 6.5c-.8.1-1.5.4-2.1.9l-2.3-7.4H45h-.1c-.8 0-1.5-.3-2.1-.9L30.5 34.1c-.8-.8-1.8-1.2-2.8-1.2-.8 0-1.6.3-2.3.8-1.7 1.4-1.8 3.9-.3 5.4L41 55.2V91c0 2.1 1.6 3.9 3.6 3.9h.1c2.1 0 3.8-1.7 3.8-3.8V72.7c0-.6.4-1.1.9-1.2h.2c.6 0 1.1.5 1.1 1.1V91c0 2.1 1.6 3.9 3.6 3.9h.1c2.1 0 3.8-1.7 3.8-3.8V55.5L74.5 39c1.8-1.4 1.7-3.9 0-5.3zM49.9 55.1c1.3 0 2.3 1 2.3 2.3 0 1.3-1 2.3-2.3 2.3-1.3 0-2.3-1-2.3-2.3 0-1.3 1-2.3 2.3-2.3z"></path><path d="M36.6 80.4c-.3-.2-1.7-.3-8 .7 0 0 3.6 4.4 10.8 4.2V76.7c-1.6-1.3-3.7-2.6-6.3-3.6 0-.1.5 2.7 3.5 7.3zM63.1 80.4c3-4.7 3.5-7.4 3.5-7.4-2.7 1.1-4.8 2.4-6.5 3.8v8.5c7.3.2 10.9-4.2 10.9-4.2-6.2-1-7.6-.8-7.9-.7z"></path></g><!----></svg>