<svg width="90" height="111" viewBox="0 0 90 111" fill="none" xmlns="http://www.w3.org/2000/svg">
<g filter="url(#filter0_d_11_66)">
<path d="M10.36 97.108C10.3387 96.964 10.2907 96.8333 10.216 96.716C10.1413 96.5933 10.048 96.4867 9.936 96.396C9.824 96.3053 9.696 96.236 9.552 96.188C9.41333 96.1347 9.26667 96.108 9.112 96.108C8.82933 96.108 8.58933 96.164 8.392 96.276C8.19467 96.3827 8.03467 96.5293 7.912 96.716C7.78933 96.8973 7.69867 97.1053 7.64 97.34C7.58667 97.5747 7.56 97.8173 7.56 98.068C7.56 98.308 7.58667 98.5427 7.64 98.772C7.69867 98.996 7.78933 99.1987 7.912 99.38C8.03467 99.5613 8.19467 99.708 8.392 99.82C8.58933 99.9267 8.82933 99.98 9.112 99.98C9.496 99.98 9.79467 99.8627 10.008 99.628C10.2267 99.3933 10.36 99.084 10.408 98.7H11.624C11.592 99.0573 11.5093 99.38 11.376 99.668C11.2427 99.956 11.0667 100.201 10.848 100.404C10.6293 100.607 10.3733 100.761 10.08 100.868C9.78667 100.975 9.464 101.028 9.112 101.028C8.67467 101.028 8.28 100.953 7.928 100.804C7.58133 100.649 7.288 100.439 7.048 100.172C6.808 99.9053 6.624 99.5933 6.496 99.236C6.368 98.8733 6.304 98.484 6.304 98.068C6.304 97.6413 6.368 97.2467 6.496 96.884C6.624 96.516 6.808 96.196 7.048 95.924C7.288 95.652 7.58133 95.4387 7.928 95.284C8.28 95.1293 8.67467 95.052 9.112 95.052C9.42667 95.052 9.72267 95.0973 10 95.188C10.2827 95.2787 10.5333 95.412 10.752 95.588C10.976 95.7587 11.16 95.972 11.304 96.228C11.448 96.484 11.5387 96.7773 11.576 97.108H10.36ZM12.3617 95.188H13.4977V97.34H13.5217C13.6657 97.1 13.8497 96.9267 14.0737 96.82C14.2977 96.708 14.5164 96.652 14.7297 96.652C15.0337 96.652 15.2817 96.6947 15.4737 96.78C15.671 96.86 15.8257 96.9747 15.9377 97.124C16.0497 97.268 16.127 97.4467 16.1697 97.66C16.2177 97.868 16.2417 98.1 16.2417 98.356V100.9H15.1057V98.564C15.1057 98.2227 15.0524 97.9693 14.9457 97.804C14.839 97.6333 14.6497 97.548 14.3777 97.548C14.0684 97.548 13.8444 97.6413 13.7057 97.828C13.567 98.0093 13.4977 98.3107 13.4977 98.732V100.9H12.3617V95.188ZM17.0559 98.036C17.0719 97.7693 17.1385 97.548 17.2559 97.372C17.3732 97.196 17.5225 97.0547 17.7039 96.948C17.8852 96.8413 18.0879 96.7667 18.3119 96.724C18.5412 96.676 18.7705 96.652 18.9999 96.652C19.2079 96.652 19.4185 96.668 19.6319 96.7C19.8452 96.7267 20.0399 96.7827 20.2159 96.868C20.3919 96.9533 20.5359 97.0733 20.6479 97.228C20.7599 97.3773 20.8159 97.5773 20.8159 97.828V99.98C20.8159 100.167 20.8265 100.345 20.8479 100.516C20.8692 100.687 20.9065 100.815 20.9599 100.9H19.8079C19.7865 100.836 19.7679 100.772 19.7519 100.708C19.7412 100.639 19.7332 100.569 19.7279 100.5C19.5465 100.687 19.3332 100.817 19.0879 100.892C18.8425 100.967 18.5919 101.004 18.3359 101.004C18.1385 101.004 17.9545 100.98 17.7839 100.932C17.6132 100.884 17.4639 100.809 17.3359 100.708C17.2079 100.607 17.1065 100.479 17.0319 100.324C16.9625 100.169 16.9279 99.9853 16.9279 99.772C16.9279 99.5373 16.9679 99.3453 17.0479 99.196C17.1332 99.0413 17.2399 98.9187 17.3679 98.828C17.5012 98.7373 17.6505 98.6707 17.8159 98.628C17.9865 98.58 18.1572 98.5427 18.3279 98.516C18.4985 98.4893 18.6665 98.468 18.8319 98.452C18.9972 98.436 19.1439 98.412 19.2719 98.38C19.3999 98.348 19.5012 98.3027 19.5759 98.244C19.6505 98.18 19.6852 98.0893 19.6799 97.972C19.6799 97.8493 19.6585 97.7533 19.6159 97.684C19.5785 97.6093 19.5252 97.5533 19.4559 97.516C19.3919 97.4733 19.3145 97.4467 19.2239 97.436C19.1385 97.42 19.0452 97.412 18.9439 97.412C18.7199 97.412 18.5439 97.46 18.4159 97.556C18.2879 97.652 18.2132 97.812 18.1919 98.036H17.0559ZM19.6799 98.876C19.6319 98.9187 19.5705 98.9533 19.4959 98.98C19.4265 99.0013 19.3492 99.02 19.2639 99.036C19.1839 99.052 19.0985 99.0653 19.0079 99.076C18.9172 99.0867 18.8265 99.1 18.7359 99.116C18.6505 99.132 18.5652 99.1533 18.4799 99.18C18.3999 99.2067 18.3279 99.244 18.2639 99.292C18.2052 99.3347 18.1572 99.3907 18.1199 99.46C18.0825 99.5293 18.0639 99.6173 18.0639 99.724C18.0639 99.8253 18.0825 99.9107 18.1199 99.98C18.1572 100.049 18.2079 100.105 18.2719 100.148C18.3359 100.185 18.4105 100.212 18.4959 100.228C18.5812 100.244 18.6692 100.252 18.7599 100.252C18.9839 100.252 19.1572 100.215 19.2799 100.14C19.4025 100.065 19.4932 99.9773 19.5519 99.876C19.6105 99.7693 19.6452 99.6627 19.6559 99.556C19.6719 99.4493 19.6799 99.364 19.6799 99.3V98.876ZM21.7296 96.764H22.8016V97.324H22.8176C22.967 97.1107 23.1456 96.9453 23.3536 96.828C23.567 96.7107 23.8096 96.652 24.0816 96.652C24.343 96.652 24.5803 96.7027 24.7936 96.804C25.0123 96.9053 25.1776 97.084 25.2896 97.34C25.4123 97.1587 25.5776 96.9987 25.7856 96.86C25.999 96.7213 26.2496 96.652 26.5376 96.652C26.7563 96.652 26.959 96.6787 27.1456 96.732C27.3323 96.7853 27.4923 96.8707 27.6256 96.988C27.759 97.1053 27.863 97.26 27.9376 97.452C28.0123 97.6387 28.0496 97.8653 28.0496 98.132V100.9H26.9136V98.556C26.9136 98.4173 26.9083 98.2867 26.8976 98.164C26.887 98.0413 26.8576 97.9347 26.8096 97.844C26.7616 97.7533 26.6896 97.6813 26.5936 97.628C26.503 97.5747 26.3776 97.548 26.2176 97.548C26.0576 97.548 25.927 97.58 25.8256 97.644C25.7296 97.7027 25.6523 97.7827 25.5936 97.884C25.5403 97.98 25.503 98.092 25.4816 98.22C25.4656 98.3427 25.4576 98.468 25.4576 98.596V100.9H24.3216V98.58C24.3216 98.4573 24.319 98.3373 24.3136 98.22C24.3083 98.0973 24.2843 97.9853 24.2416 97.884C24.2043 97.7827 24.1376 97.7027 24.0416 97.644C23.951 97.58 23.815 97.548 23.6336 97.548C23.5803 97.548 23.5083 97.5613 23.4176 97.588C23.3323 97.6093 23.247 97.6547 23.1616 97.724C23.0816 97.788 23.0123 97.884 22.9536 98.012C22.895 98.1347 22.8656 98.2973 22.8656 98.5V100.9H21.7296V96.764ZM31.0356 100.156C31.2223 100.156 31.377 100.119 31.4996 100.044C31.6276 99.9693 31.729 99.8733 31.8036 99.756C31.8836 99.6333 31.9396 99.492 31.9716 99.332C32.0036 99.172 32.0196 99.0093 32.0196 98.844C32.0196 98.6787 32.001 98.516 31.9636 98.356C31.9316 98.196 31.8756 98.0547 31.7956 97.932C31.7156 97.804 31.6116 97.7027 31.4836 97.628C31.361 97.548 31.209 97.508 31.0276 97.508C30.841 97.508 30.6836 97.548 30.5556 97.628C30.433 97.7027 30.3316 97.8013 30.2516 97.924C30.177 98.0467 30.1236 98.188 30.0916 98.348C30.0596 98.508 30.0436 98.6733 30.0436 98.844C30.0436 99.0093 30.0596 99.172 30.0916 99.332C30.129 99.492 30.185 99.6333 30.2596 99.756C30.3396 99.8733 30.4436 99.9693 30.5716 100.044C30.6996 100.119 30.8543 100.156 31.0356 100.156ZM28.9476 96.764H30.0276V97.292H30.0436C30.1823 97.068 30.3583 96.9053 30.5716 96.804C30.785 96.7027 31.0196 96.652 31.2756 96.652C31.601 96.652 31.881 96.7133 32.1156 96.836C32.3503 96.9587 32.545 97.1213 32.6996 97.324C32.8543 97.5267 32.969 97.764 33.0436 98.036C33.1183 98.3027 33.1556 98.5827 33.1556 98.876C33.1556 99.1533 33.1183 99.42 33.0436 99.676C32.969 99.932 32.8543 100.159 32.6996 100.356C32.5503 100.553 32.361 100.711 32.1316 100.828C31.9076 100.945 31.6436 101.004 31.3396 101.004C31.0836 101.004 30.8463 100.953 30.6276 100.852C30.4143 100.745 30.2383 100.591 30.0996 100.388H30.0836V102.348H28.9476V96.764ZM35.0063 96.124H33.8703V95.188H35.0063V96.124ZM33.8703 96.764H35.0063V100.9H33.8703V96.764ZM36.9088 98.836C36.9088 99.0013 36.9248 99.164 36.9568 99.324C36.9888 99.4787 37.0421 99.62 37.1168 99.748C37.1968 99.8707 37.3008 99.9693 37.4288 100.044C37.5568 100.119 37.7168 100.156 37.9088 100.156C38.1008 100.156 38.2608 100.119 38.3888 100.044C38.5221 99.9693 38.6261 99.8707 38.7008 99.748C38.7808 99.62 38.8368 99.4787 38.8688 99.324C38.9008 99.164 38.9168 99.0013 38.9168 98.836C38.9168 98.6707 38.9008 98.508 38.8688 98.348C38.8368 98.188 38.7808 98.0467 38.7008 97.924C38.6261 97.8013 38.5221 97.7027 38.3888 97.628C38.2608 97.548 38.1008 97.508 37.9088 97.508C37.7168 97.508 37.5568 97.548 37.4288 97.628C37.3008 97.7027 37.1968 97.8013 37.1168 97.924C37.0421 98.0467 36.9888 98.188 36.9568 98.348C36.9248 98.508 36.9088 98.6707 36.9088 98.836ZM35.7728 98.836C35.7728 98.5053 35.8234 98.2067 35.9248 97.94C36.0261 97.668 36.1701 97.4387 36.3568 97.252C36.5434 97.06 36.7674 96.9133 37.0288 96.812C37.2901 96.7053 37.5834 96.652 37.9088 96.652C38.2341 96.652 38.5274 96.7053 38.7888 96.812C39.0554 96.9133 39.2821 97.06 39.4688 97.252C39.6554 97.4387 39.7994 97.668 39.9008 97.94C40.0021 98.2067 40.0528 98.5053 40.0528 98.836C40.0528 99.1667 40.0021 99.4653 39.9008 99.732C39.7994 99.9987 39.6554 100.228 39.4688 100.42C39.2821 100.607 39.0554 100.751 38.7888 100.852C38.5274 100.953 38.2341 101.004 37.9088 101.004C37.5834 101.004 37.2901 100.953 37.0288 100.852C36.7674 100.751 36.5434 100.607 36.3568 100.42C36.1701 100.228 36.0261 99.9987 35.9248 99.732C35.8234 99.4653 35.7728 99.1667 35.7728 98.836ZM40.7914 96.764H41.8714V97.34H41.8954C42.0394 97.1 42.226 96.9267 42.4554 96.82C42.6847 96.708 42.9194 96.652 43.1594 96.652C43.4634 96.652 43.7114 96.6947 43.9034 96.78C44.1007 96.86 44.2554 96.9747 44.3674 97.124C44.4794 97.268 44.5567 97.4467 44.5994 97.66C44.6474 97.868 44.6714 98.1 44.6714 98.356V100.9H43.5354V98.564C43.5354 98.2227 43.482 97.9693 43.3754 97.804C43.2687 97.6333 43.0794 97.548 42.8074 97.548C42.498 97.548 42.274 97.6413 42.1354 97.828C41.9967 98.0093 41.9274 98.3107 41.9274 98.732V100.9H40.7914V96.764ZM47.8801 95.188H49.1361V97.556L51.3681 95.188H52.9361L50.7041 97.444L53.1521 100.9H51.5761L49.8561 98.332L49.1361 99.06V100.9H47.8801V95.188ZM54.7016 96.124H53.5656V95.188H54.7016V96.124ZM53.5656 96.764H54.7016V100.9H53.5656V96.764ZM58.5321 98.82C58.5321 98.6493 58.5161 98.4867 58.4841 98.332C58.4521 98.172 58.3961 98.0333 58.3161 97.916C58.2414 97.7933 58.1427 97.6947 58.0201 97.62C57.8974 97.5453 57.7427 97.508 57.5561 97.508C57.3694 97.508 57.2121 97.5453 57.0841 97.62C56.9561 97.6947 56.8521 97.7933 56.7721 97.916C56.6974 98.0387 56.6414 98.18 56.6041 98.34C56.5721 98.4947 56.5561 98.6573 56.5561 98.828C56.5561 98.988 56.5747 99.148 56.6121 99.308C56.6494 99.468 56.7081 99.612 56.7881 99.74C56.8734 99.8627 56.9774 99.964 57.1001 100.044C57.2281 100.119 57.3801 100.156 57.5561 100.156C57.7427 100.156 57.8974 100.119 58.0201 100.044C58.1481 99.9693 58.2494 99.8707 58.3241 99.748C58.3987 99.62 58.4521 99.476 58.4841 99.316C58.5161 99.156 58.5321 98.9907 58.5321 98.82ZM58.5481 100.372H58.5321C58.3987 100.596 58.2227 100.759 58.0041 100.86C57.7907 100.956 57.5481 101.004 57.2761 101.004C56.9667 101.004 56.6947 100.945 56.4601 100.828C56.2254 100.705 56.0307 100.543 55.8761 100.34C55.7267 100.132 55.6121 99.8947 55.5321 99.628C55.4574 99.3613 55.4201 99.084 55.4201 98.796C55.4201 98.5187 55.4574 98.252 55.5321 97.996C55.6121 97.7347 55.7267 97.5053 55.8761 97.308C56.0307 97.1107 56.2227 96.9533 56.4521 96.836C56.6814 96.7133 56.9481 96.652 57.2521 96.652C57.4974 96.652 57.7294 96.7053 57.9481 96.812C58.1721 96.9133 58.3481 97.0653 58.4761 97.268H58.4921V95.188H59.6281V100.9H58.5481V100.372ZM61.3667 99.556C61.3667 99.6787 61.3907 99.7853 61.4387 99.876C61.492 99.9613 61.5587 100.033 61.6387 100.092C61.7187 100.145 61.8094 100.185 61.9107 100.212C62.0174 100.239 62.1267 100.252 62.2387 100.252C62.3187 100.252 62.4014 100.244 62.4867 100.228C62.5774 100.207 62.6574 100.177 62.7267 100.14C62.8014 100.097 62.8627 100.044 62.9107 99.98C62.9587 99.9107 62.9827 99.8253 62.9827 99.724C62.9827 99.5533 62.868 99.4253 62.6387 99.34C62.4147 99.2547 62.1 99.1693 61.6947 99.084C61.5294 99.0467 61.3667 99.004 61.2067 98.956C61.052 98.9027 60.9134 98.836 60.7907 98.756C60.668 98.6707 60.5694 98.5667 60.4947 98.444C60.42 98.316 60.3827 98.1613 60.3827 97.98C60.3827 97.7133 60.4334 97.4947 60.5347 97.324C60.6414 97.1533 60.78 97.02 60.9507 96.924C61.1214 96.8227 61.3134 96.7533 61.5267 96.716C61.74 96.6733 61.9587 96.652 62.1827 96.652C62.4067 96.652 62.6227 96.6733 62.8307 96.716C63.044 96.7587 63.2334 96.8307 63.3987 96.932C63.564 97.0333 63.7 97.1693 63.8067 97.34C63.9187 97.5053 63.9854 97.716 64.0067 97.972H62.9267C62.9107 97.7533 62.828 97.6067 62.6787 97.532C62.5294 97.452 62.3534 97.412 62.1507 97.412C62.0867 97.412 62.0174 97.4173 61.9427 97.428C61.868 97.4333 61.7987 97.4493 61.7347 97.476C61.676 97.5027 61.6254 97.5427 61.5827 97.596C61.54 97.644 61.5187 97.7107 61.5187 97.796C61.5187 97.8973 61.556 97.98 61.6307 98.044C61.7054 98.108 61.8014 98.1613 61.9187 98.204C62.0414 98.2413 62.18 98.276 62.3347 98.308C62.4894 98.34 62.6467 98.3747 62.8067 98.412C62.972 98.4493 63.132 98.4947 63.2867 98.548C63.4467 98.6013 63.588 98.6733 63.7107 98.764C63.8334 98.8493 63.932 98.9587 64.0067 99.092C64.0814 99.22 64.1187 99.38 64.1187 99.572C64.1187 99.844 64.0627 100.073 63.9507 100.26C63.844 100.441 63.7027 100.588 63.5267 100.7C63.3507 100.812 63.148 100.889 62.9187 100.932C62.6947 100.98 62.4654 101.004 62.2307 101.004C61.9907 101.004 61.756 100.98 61.5267 100.932C61.2974 100.884 61.092 100.804 60.9107 100.692C60.7347 100.58 60.588 100.433 60.4707 100.252C60.3587 100.065 60.2974 99.8333 60.2867 99.556H61.3667ZM67.1301 95.188H68.3861V97.38H70.6981V95.188H71.9541V100.9H70.6981V98.436H68.3861V100.9H67.1301V95.188ZM76.8198 100.9H75.7398V100.324H75.7158C75.5718 100.564 75.3851 100.737 75.1558 100.844C74.9265 100.951 74.6918 101.004 74.4518 101.004C74.1478 101.004 73.8971 100.964 73.6998 100.884C73.5078 100.804 73.3558 100.692 73.2438 100.548C73.1318 100.399 73.0518 100.22 73.0038 100.012C72.9611 99.7987 72.9398 99.564 72.9398 99.308V96.764H74.0758V99.1C74.0758 99.4413 74.1291 99.6973 74.2358 99.868C74.3425 100.033 74.5318 100.116 74.8038 100.116C75.1131 100.116 75.3371 100.025 75.4758 99.844C75.6145 99.6573 75.6838 99.3533 75.6838 98.932V96.764H76.8198V100.9ZM80.714 98.836C80.714 98.66 80.6953 98.492 80.658 98.332C80.6207 98.172 80.562 98.0307 80.482 97.908C80.402 97.7853 80.3007 97.6893 80.178 97.62C80.0607 97.5453 79.9167 97.508 79.746 97.508C79.5807 97.508 79.4367 97.5453 79.314 97.62C79.1913 97.6893 79.09 97.7853 79.01 97.908C78.93 98.0307 78.8713 98.172 78.834 98.332C78.7967 98.492 78.778 98.66 78.778 98.836C78.778 99.0067 78.7967 99.172 78.834 99.332C78.8713 99.492 78.93 99.6333 79.01 99.756C79.09 99.8787 79.1913 99.9773 79.314 100.052C79.4367 100.121 79.5807 100.156 79.746 100.156C79.9167 100.156 80.0607 100.121 80.178 100.052C80.3007 99.9773 80.402 99.8787 80.482 99.756C80.562 99.6333 80.6207 99.492 80.658 99.332C80.6953 99.172 80.714 99.0067 80.714 98.836ZM77.682 95.188H78.818V97.268H78.834C78.9727 97.0547 79.1593 96.9 79.394 96.804C79.634 96.7027 79.882 96.652 80.138 96.652C80.346 96.652 80.5513 96.6947 80.754 96.78C80.9567 96.8653 81.138 96.996 81.298 97.172C81.4633 97.348 81.5967 97.5747 81.698 97.852C81.7993 98.124 81.85 98.4493 81.85 98.828C81.85 99.2067 81.7993 99.5347 81.698 99.812C81.5967 100.084 81.4633 100.308 81.298 100.484C81.138 100.66 80.9567 100.791 80.754 100.876C80.5513 100.961 80.346 101.004 80.138 101.004C79.834 101.004 79.562 100.956 79.322 100.86C79.082 100.764 78.9007 100.601 78.778 100.372H78.762V100.9H77.682V95.188Z" fill="url(#paint0_linear_11_66)"/>
</g>
<g filter="url(#filter1_d_11_66)">
<path d="M37.5489 33.2C37.5489 37.1 40.6489 40.2 44.5489 40.2C48.3489 40.2 51.5489 37.1 51.5489 33.2C51.5489 29.3 48.4489 26.2 44.5489 26.2C40.7489 26.2 37.5489 29.3 37.5489 33.2Z" fill="url(#paint1_linear_11_66)"/>
<path d="M27.1488 73.4C27.1488 73.4 27.1488 66.1 18.0488 59.7C18.0488 59.7 17.9488 62.5 19.8488 67.7C19.5488 67.5 18.2488 67 11.9488 66.6C11.8488 66.6 15.6488 74.3 27.1488 73.4Z" fill="url(#paint2_linear_11_66)"/>
<path d="M12.8489 51.3C12.8489 51.3 11.9489 53.4 11.8489 58.1C11.7489 57.8 10.8489 57.1 5.94885 54.9C5.94885 54.9 6.64885 62 15.8489 64.8C15.8489 64.7 18.0489 59 12.8489 51.3Z" fill="url(#paint3_linear_11_66)"/>
<path d="M9.04885 54.5C9.04885 54.5 12.8489 50.5 11.2489 42.3C11.2489 42.3 9.74885 43.7 8.04885 47.6C8.04885 47.4 7.54885 46.4 4.24885 42.9C4.24885 42.9 2.34885 49 9.04885 54.5Z" fill="url(#paint4_linear_11_66)"/>
<path d="M12.2489 33.5C12.2489 33.5 10.5489 34.3 8.04885 37.1C8.14885 36.9 7.94885 35.9 6.14885 32C6.14885 32 2.74885 36.7 6.94885 43.3C6.94885 43.4 11.3489 41 12.2489 33.5Z" fill="url(#paint5_linear_11_66)"/>
<path d="M8.74885 33C13.5489 28.7 10.8488 24.4 10.8488 24.4C5.54885 30.8 8.74885 33 8.74885 33Z" fill="url(#paint6_linear_11_66)"/>
<path d="M71.0489 59.7C61.9489 66.1 61.9489 73.4 61.9489 73.4C73.4489 74.2 77.2488 66.6 77.2488 66.6C70.9488 67 69.5489 67.5 69.3489 67.7C71.1489 62.5 71.0489 59.7 71.0489 59.7Z" fill="url(#paint7_linear_11_66)"/>
<path d="M77.2488 58C77.1488 53.3 76.2488 51.2 76.2488 51.2C71.0488 58.9 73.1488 64.6 73.1488 64.6C82.3488 61.9 83.0488 54.7 83.0488 54.7C78.2488 57 77.3488 57.8 77.2488 58Z" fill="url(#paint8_linear_11_66)"/>
<path d="M77.9489 42.3C76.3489 50.6 80.1488 54.5 80.1488 54.5C86.8488 49 84.9489 42.8 84.9489 42.8C81.6489 46.3 81.2488 47.3 81.1488 47.5C79.4488 43.8 77.9489 42.3 77.9489 42.3Z" fill="url(#paint9_linear_11_66)"/>
<path d="M82.1488 43.4C86.3488 36.8 82.9489 32.1 82.9489 32.1C81.1489 36 81.0489 37 81.0489 37.2C78.5489 34.4 76.8489 33.6 76.8489 33.6C77.7489 41 82.1488 43.4 82.1488 43.4Z" fill="url(#paint10_linear_11_66)"/>
<path d="M80.3489 33C80.3489 33 83.5488 30.8 78.2488 24.4C78.2488 24.4 75.5489 28.7 80.3489 33Z" fill="url(#paint11_linear_11_66)"/>
<path d="M22.8489 22.8L23.8489 19.1L27.5489 18.1L23.8489 17.2L22.8489 13.5L21.8489 17.2L18.2489 18.1L21.8489 19.1L22.8489 22.8Z" fill="url(#paint12_linear_11_66)"/>
<path d="M68.9489 20L69.9489 16.3L73.6488 15.3L69.9489 14.3L68.9489 10.7L68.0489 14.3L64.3489 15.3L68.0489 16.3L68.9489 20Z" fill="url(#paint13_linear_11_66)"/>
<path d="M37.5488 13.5L39.0488 8.2L44.3488 6.7L39.0488 5.3L37.5488 0L36.1488 5.3L30.8488 6.7L36.1488 8.2L37.5488 13.5Z" fill="url(#paint14_linear_11_66)"/>
<path d="M69.0489 28.7C68.3489 28.2 67.5488 27.9 66.7488 27.9C65.7488 27.9 64.7489 28.3 63.9489 29.1L51.6488 41.6C51.0489 42.2 50.3488 42.5 49.5488 42.5H49.1488H48.8488L46.5488 49.8C45.9488 49.3 45.2488 49 44.4489 49L46.3488 42.5H42.2488L44.1488 49C43.3488 49.1 42.6488 49.4 42.0488 49.9L39.7488 42.5H39.5488H39.4489C38.6489 42.5 37.9488 42.2 37.3488 41.6L25.0488 29.1C24.2488 28.3 23.2489 27.9 22.2489 27.9C21.4489 27.9 20.6488 28.2 19.9488 28.7C18.2488 30.1 18.1488 32.6 19.6488 34.1L35.5488 50.2V56.5V75.3V86C35.5488 88.1 37.1488 89.9 39.1488 89.9H39.2488C41.3489 89.9 43.0488 88.2 43.0488 86.1V67.7C43.0488 67.1 43.4489 66.6 43.9489 66.5C44.0489 66.5 44.0488 66.5 44.1488 66.5C44.7488 66.5 45.2488 67 45.2488 67.6V86C45.2488 88.1 46.8488 89.9 48.8488 89.9H48.9489C51.0489 89.9 52.7489 88.2 52.7489 86.1V70.3V57.1V50.5L69.0489 34C70.8489 32.6 70.7489 30.1 69.0489 28.7ZM44.4489 50.1C45.7488 50.1 46.7488 51.1 46.7488 52.4C46.7488 53.7 45.7488 54.7 44.4489 54.7C43.1489 54.7 42.1488 53.7 42.1488 52.4C42.1488 51.1 43.1489 50.1 44.4489 50.1Z" fill="url(#paint15_linear_11_66)"/>
<path d="M31.1488 75.4C30.8488 75.2 29.4488 75.1 23.1488 76.1C23.1488 76.1 26.7489 80.5 33.9489 80.3V75.4V71.7C32.3489 70.4 30.2488 69.1 27.6488 68.1C27.6488 68 28.1488 70.8 31.1488 75.4Z" fill="url(#paint16_linear_11_66)"/>
<path d="M57.6488 75.4C60.6488 70.7 61.1488 68 61.1488 68C58.4488 69.1 56.3488 70.4 54.6488 71.8V80.3C61.9488 80.5 65.5489 76.1 65.5489 76.1C59.3489 75.1 57.9488 75.3 57.6488 75.4Z" fill="url(#paint17_linear_11_66)"/>
</g>
<defs>
<filter id="filter0_d_11_66" x="2.304" y="95.052" width="83.546" height="15.296" filterUnits="userSpaceOnUse" color-interpolation-filters="sRGB">
<feFlood flood-opacity="0" result="BackgroundImageFix"/>
<feColorMatrix in="SourceAlpha" type="matrix" values="0 0 0 0 0 0 0 0 0 0 0 0 0 0 0 0 0 0 127 0" result="hardAlpha"/>
<feOffset dy="4"/>
<feGaussianBlur stdDeviation="2"/>
<feComposite in2="hardAlpha" operator="out"/>
<feColorMatrix type="matrix" values="0 0 0 0 0 0 0 0 0 0 0 0 0 0 0 0 0 0 0.25 0"/>
<feBlend mode="normal" in2="BackgroundImageFix" result="effect1_dropShadow_11_66"/>
<feBlend mode="normal" in="SourceGraphic" in2="effect1_dropShadow_11_66" result="shape"/>
</filter>
<filter id="filter1_d_11_66" x="0" y="0" width="89.1977" height="97.9" filterUnits="userSpaceOnUse" color-interpolation-filters="sRGB">
<feFlood flood-opacity="0" result="BackgroundImageFix"/>
<feColorMatrix in="SourceAlpha" type="matrix" values="0 0 0 0 0 0 0 0 0 0 0 0 0 0 0 0 0 0 127 0" result="hardAlpha"/>
<feOffset dy="4"/>
<feGaussianBlur stdDeviation="2"/>
<feComposite in2="hardAlpha" operator="out"/>
<feColorMatrix type="matrix" values="0 0 0 0 0 0 0 0 0 0 0 0 0 0 0 0 0 0 0.25 0"/>
<feBlend mode="normal" in2="BackgroundImageFix" result="effect1_dropShadow_11_66"/>
<feBlend mode="normal" in="SourceGraphic" in2="effect1_dropShadow_11_66" result="shape"/>
</filter>
<linearGradient id="paint0_linear_11_66" x1="44.5" y1="92.9" x2="44.5" y2="102.9" gradientUnits="userSpaceOnUse">
<stop stop-color="#8E42D3"/>
<stop offset="1" stop-color="#D46975"/>
</linearGradient>
<linearGradient id="paint1_linear_11_66" x1="44.5489" y1="26.2" x2="44.5489" y2="40.2" gradientUnits="userSpaceOnUse">
<stop stop-color="#8E42D3"/>
<stop offset="1" stop-color="#D46975"/>
</linearGradient>
<linearGradient id="paint2_linear_11_66" x1="19.5479" y1="59.7" x2="19.5479" y2="73.4732" gradientUnits="userSpaceOnUse">
<stop stop-color="#8E42D3"/>
<stop offset="1" stop-color="#D46975"/>
</linearGradient>
<linearGradient id="paint3_linear_11_66" x1="11.1299" y1="51.3" x2="11.1299" y2="64.8" gradientUnits="userSpaceOnUse">
<stop stop-color="#8E42D3"/>
<stop offset="1" stop-color="#D46975"/>
</linearGradient>
<linearGradient id="paint4_linear_11_66" x1="7.82102" y1="42.3" x2="7.82102" y2="54.5" gradientUnits="userSpaceOnUse">
<stop stop-color="#8E42D3"/>
<stop offset="1" stop-color="#D46975"/>
</linearGradient>
<linearGradient id="paint5_linear_11_66" x1="8.5492" y1="32" x2="8.5492" y2="43.303" gradientUnits="userSpaceOnUse">
<stop stop-color="#8E42D3"/>
<stop offset="1" stop-color="#D46975"/>
</linearGradient>
<linearGradient id="paint6_linear_11_66" x1="9.69847" y1="24.4" x2="9.69847" y2="33" gradientUnits="userSpaceOnUse">
<stop stop-color="#8E42D3"/>
<stop offset="1" stop-color="#D46975"/>
</linearGradient>
<linearGradient id="paint7_linear_11_66" x1="69.5989" y1="59.7" x2="69.5989" y2="73.459" gradientUnits="userSpaceOnUse">
<stop stop-color="#8E42D3"/>
<stop offset="1" stop-color="#D46975"/>
</linearGradient>
<linearGradient id="paint8_linear_11_66" x1="77.8892" y1="51.2" x2="77.8892" y2="64.6" gradientUnits="userSpaceOnUse">
<stop stop-color="#8E42D3"/>
<stop offset="1" stop-color="#D46975"/>
</linearGradient>
<linearGradient id="paint9_linear_11_66" x1="81.3767" y1="42.3" x2="81.3767" y2="54.5" gradientUnits="userSpaceOnUse">
<stop stop-color="#8E42D3"/>
<stop offset="1" stop-color="#D46975"/>
</linearGradient>
<linearGradient id="paint10_linear_11_66" x1="80.5485" y1="32.1" x2="80.5485" y2="43.4" gradientUnits="userSpaceOnUse">
<stop stop-color="#8E42D3"/>
<stop offset="1" stop-color="#D46975"/>
</linearGradient>
<linearGradient id="paint11_linear_11_66" x1="79.3992" y1="24.4" x2="79.3992" y2="33" gradientUnits="userSpaceOnUse">
<stop stop-color="#8E42D3"/>
<stop offset="1" stop-color="#D46975"/>
</linearGradient>
<linearGradient id="paint12_linear_11_66" x1="22.8989" y1="13.5" x2="22.8989" y2="22.8" gradientUnits="userSpaceOnUse">
<stop stop-color="#8E42D3"/>
<stop offset="1" stop-color="#D46975"/>
</linearGradient>
<linearGradient id="paint13_linear_11_66" x1="68.9989" y1="10.7" x2="68.9989" y2="20" gradientUnits="userSpaceOnUse">
<stop stop-color="#8E42D3"/>
<stop offset="1" stop-color="#D46975"/>
</linearGradient>
<linearGradient id="paint14_linear_11_66" x1="37.5988" y1="0" x2="37.5988" y2="13.5" gradientUnits="userSpaceOnUse">
<stop stop-color="#8E42D3"/>
<stop offset="1" stop-color="#D46975"/>
</linearGradient>
<linearGradient id="paint15_linear_11_66" x1="44.4779" y1="27.9" x2="44.4779" y2="89.9" gradientUnits="userSpaceOnUse">
<stop stop-color="#8E42D3"/>
<stop offset="1" stop-color="#D46975"/>
</linearGradient>
<linearGradient id="paint16_linear_11_66" x1="28.5489" y1="68.0974" x2="28.5489" y2="80.3066" gradientUnits="userSpaceOnUse">
<stop stop-color="#8E42D3"/>
<stop offset="1" stop-color="#D46975"/>
</linearGradient>
<linearGradient id="paint17_linear_11_66" x1="60.0989" y1="68" x2="60.0989" y2="80.3066" gradientUnits="userSpaceOnUse">
<stop stop-color="#8E42D3"/>
<stop offset="1" stop-color="#D46975"/>
</linearGradient>
</defs>
</svg>
